<?xml version="1.0" encoding="UTF-8"?>
<svg width="24px" height="24px" viewBox="0 0 24 24" version="1.1" xmlns="http://www.w3.org/2000/svg" xmlns:xlink="http://www.w3.org/1999/xlink">
    <!-- Generator: Sketch 63.1 (92452) - https://sketch.com -->
    <title>ic_fx</title>
    <desc>Created with Sketch.</desc>
    <g id="页面-1" stroke="none" stroke-width="1" fill="none" fill-rule="evenodd">
        <g id="首页" transform="translate(-1516.000000, -2243.000000)" fill="#94A3B2" fill-rule="nonzero">
            <g id="热门推文" transform="translate(360.000000, 1870.000000)">
                <g id="免费视频推文">
                    <g id="点赞备份" transform="translate(20.000000, 372.000000)">
                        <g id="分享" transform="translate(1135.000000, 0.000000)">
                            <g id="icon">
                                <g transform="translate(0.500000, 0.500000)">
                                    <path d="M9.13735615,2.5 C9.50554598,2.5 9.80402282,2.79847683 9.80402282,3.16666667 C9.80402282,3.49394652 9.56818927,3.76614449 9.25719033,3.82259244 L9.13735615,3.83333333 L5.5,3.83333333 C4.63705508,3.83333333 3.92728813,4.48916622 3.84193815,5.32959302 L3.83333333,5.5 L3.83333333,19.5 C3.83333333,20.3629449 4.48916622,21.0727119 5.32959302,21.1580619 L5.5,21.1666667 L19.5,21.1666667 C20.3629449,21.1666667 21.0727119,20.5108338 21.1580619,19.670407 L21.1666667,19.5 L21.1666667,16.0349743 C21.1666667,15.7002563 21.4133417,15.4231523 21.7348182,15.375536 L21.8333333,15.3683077 C22.1606132,15.3683077 22.4328112,15.6041412 22.4892591,15.9151402 L22.5,16.0349743 L22.5,19.5 C22.5,21.0878187 21.2664512,22.3875266 19.7053984,22.4930789 L19.5,22.5 L5.5,22.5 C3.91218134,22.5 2.61247345,21.2664512 2.50692108,19.7053984 L2.5,19.5 L2.5,5.5 C2.5,3.91218134 3.73354879,2.61247345 5.29460158,2.50692108 L5.5,2.5 L9.13735615,2.5 Z M17.384458,9.28604933 C12.4877135,9.28604933 9.33259361,11.968211 7.80926861,17.4830113 C7.73797261,17.7411198 7.52432086,17.9216523 7.27656633,17.9632161 L7.18227125,17.9721685 C7.11862405,17.9736341 7.05369116,17.9659346 6.98916402,17.9481106 C6.63426477,17.8500786 6.42603272,17.4829052 6.52406472,17.128006 C8.16086698,11.202391 11.6875699,8.09890137 17.0018293,7.95775779 L17.384458,7.952716 L18.941,7.952 L16.1779635,5.14555353 C15.9483513,4.91233616 15.9254367,4.55291424 16.1074498,4.29449994 L16.1853072,4.20277309 C16.2889594,4.10072323 16.4175409,4.03950251 16.5511043,4.01895557 L16.6518994,4.01116927 L16.7526926,4.01862106 C16.8528616,4.03368705 16.9502227,4.07158834 17.0363608,4.13225937 L17.1280877,4.21011681 L21.05,8.198 L21.0873212,8.24784339 L21.133552,8.32819857 C21.1693344,8.40176134 21.1920384,8.48317611 21.1984441,8.56913083 C21.2047532,8.65388273 21.1950376,8.73928488 21.1693211,8.82071368 L21.1546375,8.86238185 C21.1472248,8.88133305 21.1388051,8.90026315 21.1294616,8.91884655 C21.0983578,8.98062377 21.0576993,9.0371765 21.0094946,9.08629794 L17.1244301,12.9714045 C17.0202903,13.0755443 16.8902688,13.1380282 16.755071,13.1588562 L16.6530256,13.1666667 C16.4824107,13.1666667 16.3117958,13.1015793 16.1816211,12.9714045 C15.9501993,12.7399827 15.9244857,12.3807502 16.1044805,12.120926 L16.1816211,12.0285955 L18.921,9.286 L17.384458,9.28604933 Z" id="a"></path>
                                </g>
                            </g>
                        </g>
                    </g>
                </g>
            </g>
        </g>
    </g>
</svg>