<svg width="14" height="14" viewBox="0 0 14 14" xmlns="http://www.w3.org/2000/svg">
    <g fill="none" fill-rule="evenodd">
        <rect stroke="#94A3B2" x=".5" y="2.5" width="13" height="11" rx="2"/>
        <path d="M4.5 7a.5.5 0 0 1 0 1h-2a.5.5 0 0 1 0-1h2zM8 7a.5.5 0 0 1 0 1H6a.5.5 0 0 1 0-1h2zm3.5 0a.5.5 0 1 1 0 1h-2a.5.5 0 0 1 0-1h2zM4.5 9a.5.5 0 0 1 0 1h-2a.5.5 0 0 1 0-1h2zM8 9a.5.5 0 0 1 0 1H6a.5.5 0 0 1 0-1h2z" fill="#94A3B2"/>
        <rect fill="#94A3B2" x="4" width="1" height="5" rx=".5"/>
        <rect fill="#94A3B2" x="9" width="1" height="5" rx=".5"/>
    </g>
</svg>
