<?xml version="1.0" encoding="UTF-8"?>
<svg width="25px" height="25px" viewBox="0 0 25 25" version="1.1" xmlns="http://www.w3.org/2000/svg" xmlns:xlink="http://www.w3.org/1999/xlink">
    <!-- Generator: Sketch 63.1 (92452) - https://sketch.com -->
    <title>ic_zt_press2</title>
    <desc>Created with Sketch.</desc>
    <g id="页面-1" stroke="none" stroke-width="1" fill="none" fill-rule="evenodd">
        <g id="首页" transform="translate(-562.000000, -2612.000000)" fill="#28E4FF" fill-rule="nonzero" stroke="#28E4FF" stroke-width="0.5">
            <g id="热门推文" transform="translate(360.000000, 1870.000000)">
                <g id="免费图片推文" transform="translate(0.000000, 427.000000)">
                    <g id="点赞备份" transform="translate(20.000000, 314.000000)">
                        <g id="转推/未选中" transform="translate(181.500000, 0.000000)">
                            <g id="转推">
                                <g id="icon" transform="translate(0.679553, 0.608633)">
                                    <path d="M2.76655986,14.395286 L8.90541556,14.8245566 C9.32921511,14.8541915 9.64874865,15.2217728 9.61911369,15.6455724 C9.59277152,16.0222831 9.29941001,16.3166108 8.93689581,16.3565526 L8.79809791,16.3592705 L4.73147772,16.0750406 C6.01011872,18.9821857 9.06615533,20.9615385 12.5440322,20.9615385 C16.3061475,20.9615385 19.5747216,18.6454237 20.6337797,15.3440917 C20.7311085,15.040695 20.9990798,14.8395576 21.2976431,14.8126987 L21.398105,14.8102992 C21.4655789,14.8131345 21.533795,14.8249713 21.6012165,14.8465999 C22.0057454,14.9763716 22.22848,15.4095078 22.0987083,15.8140367 C20.8608889,19.6726093 17.136965,22.3776399 12.8380113,22.495958 L12.5440322,22.5 C8.60267522,22.5 5.10303335,20.3238893 3.49217358,17.0570722 L3.36895087,16.7969193 L3.05098739,21.3551574 C3.02464521,21.7318682 2.73128371,22.0261958 2.3687695,22.0661377 L2.2299716,22.0688556 C1.8532609,22.0425134 1.55893321,21.7491519 1.51899138,21.3866377 L1.51627347,21.2478398 L1.94554408,15.1089841 C1.97188626,14.7322734 2.26524776,14.4379457 2.62776196,14.3980039 L2.76655986,14.395286 Z M12.5449796,2.5 C16.4145696,2.5 19.8574749,4.58979103 21.5012819,7.7438337 L21.9515651,3.45844933 C21.9861041,3.12983267 22.222754,2.87138682 22.5250189,2.79364394 L22.6581803,2.77171127 L22.7969885,2.77383899 C23.1725504,2.81331214 23.4564606,3.11676683 23.4837265,3.48045415 L23.4815988,3.61926235 L22.8383467,9.73939709 C22.8028209,10.0774028 22.55347,10.3411706 22.238827,10.410421 L22.1317316,10.4261351 L21.9929234,10.4240074 L15.8727886,9.78075534 C15.4502815,9.73634805 15.143771,9.35783912 15.1881783,8.93533199 C15.2237041,8.59732628 15.473055,8.33355842 15.787698,8.26430804 L15.8947934,8.24859393 L16.0336016,8.25072165 L20.256337,8.69438573 C18.9715315,6.00065448 16.1200386,4.15310691 12.8524955,4.04360791 L12.5449796,4.03846154 C8.77117601,4.03846154 5.49700369,6.3584923 4.45456751,9.65500609 C4.3584993,9.95880424 4.09136546,10.1610526 3.79291635,10.189151 L3.69246518,10.1919675 C3.62498013,10.1894124 3.55671545,10.177859 3.48920475,10.1565105 C3.08414056,10.0284196 2.85960938,9.59621194 2.98770033,9.19114775 C4.20774329,5.33298499 7.93891388,2.62260617 12.2501551,2.50405016 L12.5449796,2.5 Z" id="a"></path>
                                </g>
                            </g>
                        </g>
                    </g>
                </g>
            </g>
        </g>
    </g>
</svg>