<svg width="50" height="50" viewBox="0 0 50 50" xmlns="http://www.w3.org/2000/svg">
    <g fill="none" fill-rule="evenodd">
        <rect stroke="#0C7DFF" fill-opacity=".5" fill="#0C7DFF" x=".5" y=".5" width="49" height="49" rx="24.5"/>
        <g transform="translate(13.5 11)" fill="#FFF">
            <path d="M18.893 0A4.112 4.112 0 0 1 23 4.118v19.764A4.112 4.112 0 0 1 18.893 28H4.107A4.112 4.112 0 0 1 0 23.882V4.118A4.112 4.112 0 0 1 4.107 0h14.786zm0 1.647H4.107a2.467 2.467 0 0 0-2.46 2.325l-.004.146v19.764a2.468 2.468 0 0 0 2.32 2.467l.144.004h14.786a2.467 2.467 0 0 0 2.46-2.325l.004-.146V4.118a2.468 2.468 0 0 0-2.32-2.467l-.144-.004z" fill-rule="nonzero"/>
            <rect x="4" y="6" width="15" height="2" rx="1"/>
            <rect x="4" y="11" width="15" height="2" rx="1"/>
            <rect x="4" y="15" width="8" height="2" rx="1"/>
            <path d="M18.167 15c.46 0 .833.392.833.875v5.25c0 .483-.373.875-.833.875h-3.334c-.46 0-.833-.392-.833-.875v-5.25c0-.483.373-.875.833-.875h3.334zm-.834 1.75h-1.666v3.5h1.666v-3.5z" fill-rule="nonzero"/>
            <rect x="4" y="20" width="3" height="2" rx="1"/>
            <rect x="9" y="20" width="3" height="2" rx="1"/>
        </g>
    </g>
</svg>
