<?xml version="1.0" encoding="UTF-8"?>
<svg width="25px" height="24px" viewBox="0 0 25 24" version="1.1" xmlns="http://www.w3.org/2000/svg" xmlns:xlink="http://www.w3.org/1999/xlink">
    <!-- Generator: Sketch 63.1 (92452) - https://sketch.com -->
    <title>ic_hf</title>
    <desc>Created with Sketch.</desc>
    <g id="页面-1" stroke="none" stroke-width="1" fill="none" fill-rule="evenodd">
        <g id="首页" transform="translate(-380.000000, -2243.000000)" fill="#94A3B2" fill-rule="nonzero">
            <g id="热门推文" transform="translate(360.000000, 1870.000000)">
                <g id="免费视频推文">
                    <g id="点赞备份" transform="translate(20.000000, 372.000000)">
                        <g id="回复" transform="translate(0.500000, 1.000000)">
                            <g id="编组">
                                <g>
                                    <path d="M12,2 C17.5228475,2 22,6.4771525 22,12 C22,17.5228475 17.5228475,22 12,22 C9.92557508,22 7.99867813,21.3683577 6.40114631,20.2869102 L4.23225116,20.829051 C3.56250753,20.996487 2.88383941,20.5892861 2.7164035,19.9195424 C2.666641,19.7204924 2.666641,19.5122534 2.7164035,19.3132034 L3.30772805,16.9476117 C2.47549872,15.4886452 2,13.7998519 2,12 C2,6.4771525 6.4771525,2 12,2 Z M12,3.25 C7.16750844,3.25 3.25,7.16750844 3.25,12 C3.25,13.4007197 3.5786561,14.7511749 4.19876314,15.967478 L4.39350157,16.3282606 L4.64207766,16.7640349 L3.92908163,19.6163729 L6.6395959,18.938848 L7.1018727,19.2517858 C8.53696521,20.2232701 10.2275794,20.75 12,20.75 C16.8324916,20.75 20.75,16.8324916 20.75,12 C20.75,7.16750844 16.8324916,3.25 12,3.25 Z M12.75,13.875 C13.0261424,13.875 13.25,14.0988576 13.25,14.375 L13.25,14.625 C13.25,14.9011424 13.0261424,15.125 12.75,15.125 L7.5,15.125 C7.22385763,15.125 7,14.9011424 7,14.625 L7,14.375 C7,14.0988576 7.22385763,13.875 7.5,13.875 L12.75,13.875 Z M16.5,9.5 C16.7761424,9.5 17,9.72385763 17,10 L17,10.25 C17,10.5261424 16.7761424,10.75 16.5,10.75 L7.5,10.75 C7.22385763,10.75 7,10.5261424 7,10.25 L7,10 C7,9.72385763 7.22385763,9.5 7.5,9.5 L16.5,9.5 Z" id="ic_hf"></path>
                                </g>
                            </g>
                        </g>
                    </g>
                </g>
            </g>
        </g>
    </g>
</svg>