<?xml version="1.0" encoding="UTF-8"?>
<svg width="25px" height="25px" viewBox="0 0 25 25" version="1.1" xmlns="http://www.w3.org/2000/svg" xmlns:xlink="http://www.w3.org/1999/xlink">
    <!-- Generator: Sketch 63.1 (92452) - https://sketch.com -->
    <title>ic_zt_normal</title>
    <desc>Created with Sketch.</desc>
    <g id="页面-1" stroke="none" stroke-width="1" fill="none" fill-rule="evenodd">
        <g id="首页" transform="translate(-562.000000, -2242.000000)" fill="#94A3B2" fill-rule="nonzero">
            <g id="热门推文" transform="translate(360.000000, 1870.000000)">
                <g id="免费视频推文">
                    <g id="点赞备份" transform="translate(20.000000, 372.000000)">
                        <g id="转推/未选中" transform="translate(181.500000, 0.000000)">
                            <g id="转推">
                                <g id="icon" transform="translate(0.679553, 0.608633)">
                                    <path d="M2.26655986,13.895286 L8.40541556,14.3245566 C8.82921511,14.3541915 9.14874865,14.7217728 9.11911369,15.1455724 C9.09277152,15.5222831 8.79941001,15.8166108 8.43689581,15.8565526 L8.29809791,15.8592705 L4.23147772,15.5750406 C5.51011872,18.4821857 8.56615533,20.4615385 12.0440322,20.4615385 C15.8061475,20.4615385 19.0747216,18.1454237 20.1337797,14.8440917 C20.2311085,14.540695 20.4990798,14.3395576 20.7976431,14.3126987 L20.898105,14.3102992 C20.9655789,14.3131345 21.033795,14.3249713 21.1012165,14.3465999 C21.5057454,14.4763716 21.72848,14.9095078 21.5987083,15.3140367 C20.3608889,19.1726093 16.636965,21.8776399 12.3380113,21.995958 L12.0440322,22 C8.10267522,22 4.60303335,19.8238893 2.99217358,16.5570722 L2.86895087,16.2969193 L2.55098739,20.8551574 C2.52464521,21.2318682 2.23128371,21.5261958 1.8687695,21.5661377 L1.7299716,21.5688556 C1.3532609,21.5425134 1.05893321,21.2491519 1.01899138,20.8866377 L1.01627347,20.7478398 L1.44554408,14.6089841 C1.47188626,14.2322734 1.76524776,13.9379457 2.12776196,13.8980039 L2.26655986,13.895286 Z M12.0449796,2 C15.9145696,2 19.3574749,4.08979103 21.0012819,7.2438337 L21.4515651,2.95844933 C21.4861041,2.62983267 21.722754,2.37138682 22.0250189,2.29364394 L22.1581803,2.27171127 L22.2969885,2.27383899 C22.6725504,2.31331214 22.9564606,2.61676683 22.9837265,2.98045415 L22.9815988,3.11926235 L22.3383467,9.23939709 C22.3028209,9.5774028 22.05347,9.84117065 21.738827,9.91042103 L21.6317316,9.92613515 L21.4929234,9.92400742 L15.3727886,9.28075534 C14.9502815,9.23634805 14.643771,8.85783912 14.6881783,8.43533199 C14.7237041,8.09732628 14.973055,7.83355842 15.287698,7.76430804 L15.3947934,7.74859393 L15.5336016,7.75072165 L19.756337,8.19438573 C18.4715315,5.50065448 15.6200386,3.65310691 12.3524955,3.54360791 L12.0449796,3.53846154 C8.27117601,3.53846154 4.99700369,5.8584923 3.95456751,9.15500609 C3.8584993,9.45880424 3.59136546,9.66105256 3.29291635,9.68915097 L3.19246518,9.69196752 C3.12498013,9.68941244 3.05671545,9.67785901 2.98920475,9.65651052 C2.58414056,9.52841957 2.35960938,9.09621194 2.48770033,8.69114775 C3.70774329,4.83298499 7.43891388,2.12260617 11.7501551,2.00405016 L12.0449796,2 Z" id="ic_zt"></path>
                                </g>
                            </g>
                        </g>
                    </g>
                </g>
            </g>
        </g>
    </g>
</svg>